# AST/ASF file generated using VICON BodyLanguage
# -----------------------------------------------
:version 1.10
:name VICON
:units
  mass 1.0
  length 0.45
  angle deg
:documentation
   .ast/.asf automatically generated from VICON data using
   VICON BodyBuilder and BodyLanguage model FoxedUp or BRILLIANT.MOD
:root
   order TX TY TZ RX RY RZ
   axis XYZ
   position 0 0 0  
   orientation 0 0 0 
:bonedata
  begin
     id 1 
     name lhipjoint
     direction 0.570549 -0.739093 0.358072 
     length 2.41801 
     axis 0 0 0  XYZ
  end
  begin
     id 2 
     name lfemur
     direction 0.34202 -0.939693 0  
     length 7.44434  
     axis 0 0 20  XYZ
    dof rx ry rz
    limits (-160.0 20.0)
           (-70.0 70.0)
           (-60.0 70.0)
  end
  begin
     id 3 
     name ltibia
     direction 0.34202 -0.939693 0   
     length 7.60047   
     axis 0 0 20   XYZ
    dof rx
    limits (-10.0 170.0)
  end
  begin
     id 4 
     name lfoot
     direction 0.0909041 -0.249757 0.964032   
     length 2.03437   
     axis -90 7.62852e-016 20   XYZ
    dof rx rz
    limits (-45.0 90.0)
           (-70.0 20.0)
  end
  begin
     id 5 
     name ltoes
     direction 1.53547e-011 -4.2174e-011 1   
     length 1.02054   
     axis -90 7.62852e-016 20   XYZ
    dof rx
    limits (-90.0 20.0)
  end
  begin
     id 6 
     name rhipjoint
     direction -0.558096 -0.746754 0.361784   
     length 2.3932  
     axis 0 0 0  XYZ 
  end
  begin
     id 7 
     name rfemur
     direction -0.34202 -0.939693 0   
     length 7.3886   
     axis 0 0 -20   XYZ
    dof rx ry rz
    limits (-160.0 20.0)
           (-70.0 70.0)
           (-70.0 60.0)
  end
  begin
     id 8 
     name rtibia
     direction -0.34202 -0.939693 0   
     length 7.4839   
     axis 0 0 -20   XYZ
    dof rx
    limits (-10.0 170.0)
 end
 begin
     id 9 
     name rfoot
     direction -0.114619 -0.314914 0.942174   
     length 2.25127  
     axis -90 -7.62852e-016 -20   XYZ
    dof rx rz
    limits (-45.0 90.0)
           (-20.0 70.0)
  end
  begin
     id 10 
     name rtoes
     direction -1.53518e-011 -4.21881e-011 1   
     length 1.11821   
     axis -90 -7.62852e-016 -20   XYZ
    dof rx
    limits (-90.0 20.0)
  end
  begin
     id 11 
     name lowerback
     direction -0.00902269 0.996426 -0.0839821   
     length 2.25052   
     axis 0 0 0   XYZ
    dof rx ry rz
    limits (-20.0 45.0)
           (-30.0 30.0)
           (-30.0 30.0)
  end
  begin
     id 12 
     name upperback
     direction 0.0370973 0.999169 -0.0168941   
     length 2.24876   
     axis 0 0 0   XYZ
    dof rx ry rz
    limits (-20.0 45.0)
           (-30.0 30.0)
           (-30.0 30.0)
  end
  begin
     id 13 
     name thorax
     direction 0.0402726 0.998931 0.0227027   
     length 2.26408   
     axis 0 0 0   XYZ
    dof rx ry rz
    limits (-20.0 45.0)
           (-30.0 30.0)
           (-30.0 30.0)
  end
  begin
     id 14 
     name lowerneck
     direction -0.0733697 0.98508 0.155675   
     length 1.58204   
     axis 0 0 0   XYZ
    dof rx ry rz
    limits (-20.0 45.0)
           (-30.0 30.0)
           (-30.0 30.0)
  end
  begin
     id 15 
     name upperneck
     direction 0.0426554 0.993501 -0.105526   
     length 1.61222   
     axis 0 0 0   XYZ
    dof rx ry rz
    limits (-20.0 45.0)
           (-30.0 30.0)
           (-30.0 30.0)
  end
  begin
     id 16
     name head
     direction 0.020792 0.998384 -0.0528868  
     length 1.61527  
     axis 0 0 0   XYZ
    dof rx ry rz
    limits (-20.0 45.0)
           (-30.0 30.0)
           (-30.0 30.0)
  end
  begin
     id 17 
     name lclavicle
     direction 0.967109 0.155462 -0.201325  
     length 3.59357  
     axis 0 0 0   XYZ
    dof ry rz
    limits (-20.0 10.0)
           (0.0 20.0)
  end
  begin
     id 18 
     name lhumerus
     direction 1 -4.48968e-011 2.38195e-027   
     length 5.38154   
     axis 180 -30 -90   XYZ
    dof rx ry rz
    limits (-60.0 90.0)
           (-90.0 90.0)
           (-90.0 90.0)
  end
  begin
     id 19
     name lradius
     direction 1 -4.48961e-011 4.85371e-027   
     length 3.33312   
     axis 180 -30 -90   XYZ
    dof rx
    limits (-10.0 170.0)
  end
  begin
     id 20
     name lwrist
     direction 1 -4.48961e-011 4.76515e-027   
     length 1.66656   
     axis -3.27502e-015 90 90   XYZ
    dof ry
    limits (-180.0 0.0)
 end
  begin
     id 21 
     name lhand
     direction 1 -4.48951e-011 9.53074e-027   
     length 0.710789   
     axis -6.08098e-015 90 90   XYZ
    dof rx rz
    limits (-90.0 90.0)
           (-45.0 45.0)
  end
  begin
     id 22 
     name lfingers
     direction 1 -4.48953e-011 1.90613e-026   
     length 0.573057   
     axis -1.21619e-014 90 90   XYZ
    dof rx
    limits (0.0 90.0)
  end
  begin
     id 23
     name lthumb
     direction 0.707107 -6.34973e-011 0.707107   
     length 0.822798   
     axis -90 45 -9.86923e-015   XYZ
    dof rx rz
    limits (-45.0 45.0)
           (-45.0 45.0)
  end
  begin
     id 24 
     name rclavicle
     direction -0.9585 0.265289 -0.104398   
     length 3.42039  
     axis 0 0 0   XYZ 
    dof ry rz
    limits (-10.0 20.0)
           (-20.0 0.0)
  end
  begin
     id 25 
     name rhumerus
     direction -1 -4.48977e-011 2.21478e-027  
     length 5.16954   
     axis 180 30 90   XYZ
    dof rx ry rz
    limits (-90.0 60.0)
           (-90.0 90.0)
           (-90.0 90.0)
  end
  begin
     id 26 
     name rradius
     direction -1 -4.48967e-011 5.63677e-027   
     length 3.38287   
     axis 180 30 90   XYZ
    dof rx
    limits (-10.0 170.0)
  end
  begin
     id 27 
     name rwrist
     direction -1 -4.48967e-011 4.76501e-027   
     length 1.69144   
     axis -3.27502e-015 -90 -90   XYZ
    dof ry
    limits (-180.0 0.0)
  end
  begin
     id 28
     name rhand
     direction -1 -4.48902e-011 9.53292e-027   
     length 0.817967   
     axis -6.08098e-015 -90 -90   XYZ
    dof rx rz
    limits (-90.0 90.0)
           (-45.0 45.0)
  end
  begin
     id 29
     name rfingers
     direction -1 -4.49012e-011 1.90561e-026   
     length 0.659466   
     axis -1.21619e-014 -90 -90   XYZ
    dof rx
    limits (0.0 90.0)
  end
  begin
     id 30
     name rthumb
     direction -0.707107 -6.34944e-011 0.707107   
     length 0.946865   
     axis -90 -45 9.86923e-015   XYZ
    dof rx rz
    limits (-45.0 45.0)
           (-45.0 45.0)
  end
:hierarchy
  begin
    root lhipjoint rhipjoint lowerback
    lhipjoint lfemur
    lfemur ltibia
    ltibia lfoot
    lfoot ltoes
    rhipjoint rfemur
    rfemur rtibia
    rtibia rfoot
    rfoot rtoes
    lowerback upperback
    upperback thorax
    thorax lowerneck lclavicle rclavicle
    lowerneck upperneck
    upperneck head
    lclavicle lhumerus
    lhumerus lradius
    lradius lwrist
    lwrist lhand lthumb
    lhand lfingers
    rclavicle rhumerus
    rhumerus rradius
    rradius rwrist
    rwrist rhand rthumb
    rhand rfingers
  end

#!OML:ASF F:\twosubjects\two\wednesday\Session 1\Justin1.ASF
:FULLY-SPECIFIED
:DEGREES
152
root 6.84141 17.8358 11.4139 -1.46273 31.6516 -363.914
lowerback 2.86547 -0.331813 -1.35764
upperback 0.637907 -0.442873 2.85592
thorax -0.918926 -0.213352 3.7159
lowerneck -17.9943 -2.50992 -10.855
upperneck 24.4189 -1.3636 4.39893
head 11.0034 -1.05689 3.23294
rclavicle -1.24228e-013 1.70955e-014
rhumerus 13.7257 4.18768 -57.2689
rradius 35.6294
rwrist -1.29439
rhand -19.4572 25.8777
rfingers 7.12502
rthumb 6.86379 -3.99101
lclavicle -1.24228e-013 1.70955e-014
lhumerus 8.08103 -1.42851 62.0701
lradius 38.9349
lwrist -16.6553
lhand -4.62159 36.0353
lfingers 7.12502
lthumb 21.157 64.9009
rfemur -17.4848 10.5061 10.9444
rtibia 23.105
rfoot -8.25297 -1.01998
rtoes -0.224435
lfemur -12.1467 -2.47936 -14.4519
ltibia 31.8005
lfoot -18.8369 1.36534
ltoes -27.0248
153
root 6.8326 17.8382 11.4779 -1.54099 32.0706 -363.692
lowerback 2.86492 -0.313026 -1.51007
upperback 0.612815 -0.422977 2.80064
thorax -0.945138 -0.202596 3.74436
lowerneck -17.8836 -2.48392 -10.6995
upperneck 24.3695 -1.36909 4.33621
head 10.9614 -1.05154 3.18181
rclavicle 2.99668e-014 -3.97569e-015
rhumerus 14.2616 5.33974 -56.1267
rradius 35.737
rwrist -2.26629
rhand -19.4973 25.6973
rfingers 7.12502
rthumb 6.82507 -4.17266
lclavicle 2.99668e-014 -3.97569e-015
lhumerus 9.22142 -1.9021 61.8109
lradius 38.8236
lwrist -16.7559
lhand -4.80533 36.2761
lfingers 7.12502
lthumb 20.9804 65.1613
rfemur -17.1491 9.88125 10.8742
rtibia 22.8238
rfoot -8.15866 -1.04691
rtoes -0.904637
lfemur -11.6962 -2.6621 -14.5411
ltibia 31.5497
lfoot -19.0305 0.839559
ltoes -25.0442
154
root 6.82364 17.8407 11.5434 -1.70386 32.4049 -363.476
lowerback 2.95631 -0.282811 -1.59307
upperback 0.690787 -0.387903 2.69691
thorax -0.919098 -0.186356 3.68292
lowerneck -18.211 -2.51207 -10.774
upperneck 24.4284 -1.39681 4.51522
head 11.0503 -1.04836 3.25837
rclavicle -6.90404e-014 1.98785e-014
rhumerus 14.8561 5.41717 -55.7814
rradius 35.6654
rwrist -2.05917
rhand -19.6717 25.3046
rfingers 7.12502
rthumb 6.65679 -4.57073
lclavicle -6.90404e-014 1.98785e-014
lhumerus 10.4 -2.40338 61.3684
lradius 38.8178
lwrist -16.6907
lhand -5.45343 35.7994
lfingers 7.12502
lthumb 20.3577 64.7524
rfemur -16.7594 9.17476 10.9109
rtibia 22.6834
rfoot -7.96433 -1.15075
rtoes -1.47352
lfemur -11.1319 -2.89226 -14.6318
ltibia 31.3408
lfoot -19.1842 0.593857
ltoes -23.7543
155
root 6.80377 17.8271 11.615 -1.74028 32.8068 -363.237
lowerback 2.91309 -0.36169 -1.85922
upperback 0.774906 -0.503351 2.61448
thorax -0.798095 -0.246876 3.75135
lowerneck -18.5139 -2.50198 -10.8153
upperneck 24.348 -1.3842 4.6919
head 11.0779 -1.02117 3.33145
rclavicle 2.70347e-014 -1.23246e-014
rhumerus 15.5891 4.91152 -56.17
rradius 35.4158
rwrist -1.01764
rhand -19.7715 24.844
rfingers 7.12502
rthumb 6.5604 -5.03434
lclavicle 2.70347e-014 -1.23246e-014
lhumerus 11.2416 -2.59071 60.7682
lradius 39.1933
lwrist -16.8775
lhand -5.49663 35.7847
lfingers 7.12502
lthumb 20.3162 64.7421
rfemur -16.4624 8.33694 10.9686
rtibia 22.5681
rfoot -7.72783 -1.30013
rtoes -1.27486
lfemur -10.7413 -3.27416 -14.7232
ltibia 31.2107
lfoot -19.2433 0.771957
ltoes -25.4922
156
root 6.78666 17.8054 11.685 -1.88738 33.1924 -363.004
lowerback 3.03755 -0.458901 -2.06306
upperback 0.756774 -0.642271 2.47756
thorax -0.874713 -0.315069 3.73123
lowerneck -18.3128 -2.3575 -10.6886
upperneck 24.1726 -1.2967 4.8863
head 10.9623 -0.942695 3.39062
rclavicle 3.58434e-014 -7.35503e-015
rhumerus 16.0975 5.02819 -56.3549
rradius 35.3007
rwrist -0.684459
rhand -19.5098 25.3668
rfingers 7.12502
rthumb 6.81302 -4.50356
lclavicle 3.58434e-014 -7.35503e-015
lhumerus 11.7443 -2.96744 59.938
lradius 39.6998
lwrist -16.9029
lhand -5.18961 36.35
lfingers 7.12502
lthumb 20.6112 65.2757
rfemur -16.0541 7.22842 11.1084
rtibia 22.5393
rfoot -7.88282 -1.06207
rtoes -2.24935
lfemur -10.2734 -3.63697 -14.8253
ltibia 31.1505
lfoot -19.3781 1.00358
ltoes -27.3124
157
root 6.77424 17.7902 11.7508 -2.14241 33.5318 -362.784
lowerback 3.319 -0.429403 -2.14515
upperback 0.725811 -0.610054 2.35904
thorax -1.06714 -0.295409 3.6573
lowerneck -18.2561 -2.35769 -10.6606
upperneck 24.3136 -1.32697 4.94482
head 11.0062 -0.949438 3.40665
rclavicle 2.22142e-014 -1.53064e-014
rhumerus 16.4647 5.62773 -55.8239
rradius 35.1463
rwrist -0.889562
rhand -19.4679 26.6838
rfingers 7.12502
rthumb 6.85353 -3.18527
lclavicle 2.22142e-014 -1.53064e-014
lhumerus 12.5496 -3.72914 59.2297
lradius 39.7769
lwrist -16.6172
lhand -5.19151 36.6376
lfingers 7.12502
lthumb 20.6094 65.5635
rfemur -15.5318 6.15477 11.2661
rtibia 22.6914
rfoot -7.9039 -0.83811
rtoes -2.99628
lfemur -9.70539 -3.90355 -14.9183
ltibia 31.0896
lfoot -19.6802 0.920784
ltoes -26.04
158
root 6.75359 17.7803 11.8267 -2.09309 33.9886 -362.535
lowerback 3.24455 -0.390926 -2.42113
upperback 0.672262 -0.567771 2.32718
thorax -1.08135 -0.272774 3.77836
lowerneck -18.2203 -2.44112 -10.7909
upperneck 24.4131 -1.42134 4.99522
head 11.0474 -1.00007 3.43583
rclavicle -3.89494e-014 -3.57812e-015
rhumerus 16.8912 6.1948 -55.0567
rradius 34.8942
rwrist -0.967079
rhand -19.7243 26.9148
rfingers 7.12502
rthumb 6.60593 -2.96219
lclavicle -3.89494e-014 -3.57812e-015
lhumerus 13.5867 -4.22952 58.8123
lradius 39.5943
lwrist -16.8522
lhand -4.86212 36.3958
lfingers 7.12502
lthumb 20.9259 65.2871
rfemur -15.286 5.25529 11.3231
rtibia 23.0905
rfoot -7.86044 -0.776466
rtoes -2.62839
lfemur -9.44634 -4.19029 -14.966
ltibia 30.9489
lfoot -20.0494 0.655166
ltoes -23.6785
